<svg width="200" height="200" fill="#270431ff" viewBox="0 0 200 200" xmlns="http://www.w3.org/2000/svg">
    <defs>
      <clipPath id="dddivided-clip1"><rect width="50%" height="100%" x="0" y="0"></rect></clipPath>
      <clipPath id="dddivided-clip2"><rect width="50%" height="100%" x="50%" y="0"></rect></clipPath>
    </defs> 
    <path fill="oklch(0.715 0.143 305.9)" clip-path="url(#dddivided-clip1)" transform="translate(-1,0)" d="m45 40 34 45-64 18.5 68.5 6.5-30 49.5 48.5-39 22 50.5v-52l55 23-36.5-36.5 42-51.5-69 26.5 6-52.5-29 47.5L45 40Z"/>
    <path clip-path="url(#dddivided-clip2)" d="m45 40 34 45-64 18.5 68.5 6.5-30 49.5 48.5-39 22 50.5v-52l55 23-36.5-36.5 42-51.5-69 26.5 6-52.5-29 47.5L45 40Z"/>
</svg>